<?xml version="1.0" encoding="utf-8"?>
<!-- Generator: Adobe Illustrator 18.1.1, SVG Export Plug-In . SVG Version: 6.00 Build 0)  -->
<svg version="1.1" id="Layer_1" xmlns="http://www.w3.org/2000/svg" xmlns:xlink="http://www.w3.org/1999/xlink" x="0px" y="0px"
	 viewBox="0 0 318 78.9" enable-background="new 0 0 318 78.9" xml:space="preserve">
<g>
	<path fill="#193254" d="M45,70.4c0-1.4-0.7-2.6-2.9-3.3l-1.7-0.6c-2.1-0.7-3-2.1-3-3.7c0-2.5,1.9-3.8,4.5-3.8c1.8,0,2.8,0.4,3.8,1
		v2.1h-0.2c-0.8-2-2.1-2.6-3.6-2.6c-1.6,0-2.8,1.1-2.8,2.5c0,1.2,0.5,2.1,2.2,2.7l1.3,0.5c1.7,0.6,4.1,1.5,4.1,4.3
		c0,2.6-1.8,4.4-4.8,4.4c-1.9,0-3.4-0.4-4.6-1.2v-2.4h0.2c1.2,2.9,2.8,3,4.2,3C43.9,73.3,45,72,45,70.4"/>
	<path fill="#193254" d="M56.5,69.4c0-1.7-0.6-4.2-2.8-4.2c-2.2,0-2.8,2.4-2.8,4.2c0,1.7,0.6,4.2,2.8,4.2
		C55.9,73.6,56.5,71.1,56.5,69.4 M53.7,64.8c2.5,0,4.6,2,4.6,4.6c0,2.6-2.1,4.6-4.6,4.6c-2.5,0-4.6-1.9-4.6-4.6
		C49.1,66.8,51.2,64.8,53.7,64.8"/>
	<path fill="#193254" d="M60.3,65.2h1.4v-1.7c0-3.2,1.5-4.5,3.7-4.5c2,0,2.9,1,2.9,1.6c0,0.4-0.3,0.6-0.7,0.6
		c-0.3,0-0.7-0.2-0.8-0.8c-0.2-0.8-0.7-1.1-1.4-1.1c-1.4,0-2,1.1-2,4.1v1.7h2.9v0.5h-2.9v6.4c0,1,0.4,1.2,1.4,1.2h0.4v0.4h-4.8v-0.4
		h0.4c0.8,0,1-0.2,1-1v-6.7h-1.4V65.2z"/>
	<path fill="#193254" d="M67.8,65.2H69l1.3-2.3h0.3v2.3h2.7v0.5h-2.7v6.2c0,1.1,0.5,1.4,1.3,1.4c0.5,0,1.1-0.2,1.5-0.4l0.1,0.2
		c-1,0.8-1.7,0.9-2.5,0.9c-1.1,0-1.9-0.6-1.9-1.9v-6.3h-1.2V65.2z"/>
	<path fill="#193254" d="M83.1,65.8h2.2c1.2,0,2.3-0.1,2.6-1.8H88v4.2h-0.2c-0.3-1.7-1.4-1.8-2.6-1.8h-2.2v5.9
		c0,0.9,0.4,1.1,1.3,1.1h0.8v0.4h-5.7v-0.4h0.6c0.8,0,1.1-0.2,1.1-1V60.7c0-0.8-0.3-1-1.1-1h-0.6v-0.4h10.4v3h-0.2
		c-0.3-1.6-1.1-2.3-3.4-2.3h-3.3V65.8z"/>
	<path fill="#193254" d="M93.1,65.2v5.7c0,1.3,0.7,2.2,2,2.2c1,0,1.9-0.9,2.2-1.8v-4.7c0-0.8-0.2-1-1-1h-0.4v-0.4h3.1v7.1
		c0,0.8,0.2,1,1,1h0.4v0.4h-3.1v-1.9c-0.5,1.3-1.6,2.2-2.9,2.2c-1.7,0-3-1.1-3-3.1v-4.3c0-0.8-0.2-1-1-1H90v-0.4H93.1z"/>
	<path fill="#193254" d="M103.3,66.6c0-0.8-0.2-1-1-1h-0.4v-0.4h3.1v2.2c0.3-1.4,1.2-2.6,2.7-2.6c1.1,0,1.5,0.5,1.5,1
		c0,0.3-0.2,0.7-0.6,0.7c-0.7,0-0.6-0.8-1.6-0.8c-1,0-2,1.2-2,2.4v4.1c0,0.9,0.2,1.1,1.2,1.1h0.6v0.4h-4.9v-0.4h0.4c0.8,0,1-0.2,1-1
		V66.6z"/>
	<path fill="#193254" d="M111.7,66.6c0-0.8-0.2-1-1-1h-0.4v-0.4h3.1v1.8c0.4-1.3,1.6-2.2,3-2.2c0.8,0,1.5,0.2,2,0.7
		c0.6,0.5,1,1.2,1,2.7v4.1c0,0.8,0.2,1,1,1h0.4v0.4h-4.5v-0.4h0.4c0.8,0,1-0.2,1-1v-4.3c0-0.9-0.2-1.5-0.6-1.8
		c-0.3-0.3-0.9-0.6-1.5-0.6c-1.2,0-2.2,0.9-2.2,2.1v4.6c0,0.8,0.2,1,1,1h0.4v0.4h-4.5v-0.4h0.4c0.8,0,1-0.2,1-1V66.6z"/>
	<path fill="#193254" d="M124.4,60c0.6,0,1.1,0.5,1.1,1.1s-0.5,1.1-1.1,1.1s-1.1-0.5-1.1-1.1S123.8,60,124.4,60 M125.2,72.4
		c0,0.8,0.2,1,1,1h0.4v0.4h-4.5v-0.4h0.4c0.8,0,1-0.2,1-1v-5.8c0-0.8-0.2-1-1-1h-0.4v-0.4h3.1V72.4z"/>
	<path fill="#193254" d="M133.5,71.9c0-1-0.8-1.6-1.7-1.8l-0.9-0.2c-1.7-0.5-2.2-1.4-2.2-2.5c0-1.5,1.3-2.4,3-2.4
		c1.9,0,2.8,0.9,2.8,1.4c0,0.4-0.3,0.6-0.6,0.6c-0.5,0-0.7-0.4-0.9-0.8c-0.4-0.5-0.7-0.7-1.4-0.7c-0.8,0-1.7,0.5-1.7,1.4
		c0,0.9,0.6,1.4,1.7,1.7l0.7,0.2c1.5,0.4,2.5,1.1,2.5,2.7c0,1.8-1.6,2.7-3.3,2.7c-2.1,0-3.2-0.8-3.2-1.5c0-0.4,0.3-0.6,0.6-0.6
		c0.6,0,0.8,0.6,1,0.9c0.4,0.5,0.8,0.7,1.5,0.7C132.7,73.5,133.5,73,133.5,71.9"/>
	<path fill="#193254" d="M145.8,72.4c0,0.8,0.2,1,1,1h0.4v0.4h-4.5v-0.4h0.4c0.8,0,1-0.2,1-1v-4.3c0-0.9-0.2-1.5-0.6-1.8
		c-0.3-0.3-0.9-0.6-1.5-0.6c-1.2,0-2.2,0.9-2.2,2.1v4.6c0,0.8,0.2,1,1,1h0.4v0.4h-4.5v-0.4h0.4c0.8,0,1-0.2,1-1V60.7
		c0-0.8-0.2-1-1-1h-0.4v-0.4h3.1v7.8c0.4-1.3,1.6-2.2,3-2.2c0.8,0,1.5,0.2,2,0.7c0.6,0.5,1,1.2,1,2.7V72.4z"/>
	<path fill="#193254" d="M151,60c0.6,0,1.1,0.5,1.1,1.1s-0.5,1.1-1.1,1.1s-1.1-0.5-1.1-1.1S150.3,60,151,60 M151.8,72.4
		c0,0.8,0.2,1,1,1h0.4v0.4h-4.5v-0.4h0.4c0.8,0,1-0.2,1-1v-5.8c0-0.8-0.2-1-1-1h-0.4v-0.4h3.1V72.4z"/>
	<path fill="#193254" d="M156.2,66.6c0-0.8-0.2-1-1-1h-0.4v-0.4h3.1v1.8c0.4-1.3,1.6-2.2,3-2.2c0.8,0,1.5,0.2,2,0.7
		c0.6,0.5,1,1.2,1,2.7v4.1c0,0.8,0.2,1,1,1h0.4v0.4h-4.5v-0.4h0.4c0.8,0,1-0.2,1-1v-4.3c0-0.9-0.2-1.5-0.6-1.8
		c-0.3-0.3-0.9-0.6-1.5-0.6c-1.2,0-2.2,0.9-2.2,2.1v4.6c0,0.8,0.2,1,1,1h0.4v0.4h-4.5v-0.4h0.4c0.8,0,1-0.2,1-1V66.6z"/>
	<path fill="#193254" d="M170.7,65.2c-1.3,0-2,1.6-2,2.7c0,1,0.7,2.7,2,2.7c1.3,0,2-1.5,2-2.7C172.7,66.8,172,65.2,170.7,65.2
		 M170.7,78.5c1.7,0,3.3-0.5,3.3-2.3c0-1.1-0.8-1.8-2.7-1.8h-1.7h-0.1c-1,0.4-1.6,1.1-1.6,2.1C168,77.9,169.3,78.5,170.7,78.5
		 M172.1,65.1L172.1,65.1l3.7,0V66l-2.8-0.4c0.8,0.5,1.3,1.3,1.3,2.3c0,1.7-1.6,3-3.6,3c-0.2,0-0.5,0-0.7-0.1
		c-1,0.1-1.5,0.6-1.5,1.1c0,0.4,0.4,0.9,1.2,0.9h1.8c2.1,0,3.9,0.5,3.9,2.5c0,2.4-2.2,3.6-4.6,3.6c-2.7,0-4.1-1-4.1-2.5
		c0-1.1,1.1-1.8,2.5-2.1c-1.4-0.2-1.9-1-1.9-1.7c0-0.9,0.6-1.6,2.2-1.8c-1.4-0.4-2.4-1.5-2.4-2.9c0-1.7,1.6-3,3.6-3
		C171.1,64.9,171.6,65,172.1,65.1"/>
	<path fill="#193254" d="M181.8,71.9c0-1-0.8-1.6-1.7-1.8l-0.9-0.2c-1.7-0.5-2.2-1.4-2.2-2.5c0-1.5,1.3-2.4,3-2.4
		c1.9,0,2.8,0.9,2.8,1.4c0,0.4-0.3,0.6-0.6,0.6c-0.5,0-0.7-0.4-0.9-0.8c-0.4-0.5-0.7-0.7-1.4-0.7c-0.8,0-1.7,0.5-1.7,1.4
		c0,0.9,0.6,1.4,1.7,1.7l0.7,0.2c1.5,0.4,2.5,1.1,2.5,2.7c0,1.8-1.6,2.7-3.3,2.7c-2.1,0-3.2-0.8-3.2-1.5c0-0.4,0.3-0.6,0.6-0.6
		c0.6,0,0.8,0.6,1,0.9c0.4,0.5,0.8,0.7,1.5,0.7C180.9,73.5,181.8,73,181.8,71.9"/>
	<path fill="#193254" d="M194.6,71.9c0-1-0.8-1.6-1.7-1.8l-0.9-0.2c-1.7-0.5-2.2-1.4-2.2-2.5c0-1.5,1.3-2.4,3-2.4
		c1.9,0,2.8,0.9,2.8,1.4c0,0.4-0.3,0.6-0.6,0.6c-0.5,0-0.7-0.4-0.9-0.8c-0.4-0.5-0.7-0.7-1.4-0.7c-0.8,0-1.7,0.5-1.7,1.4
		c0,0.9,0.6,1.4,1.7,1.7l0.7,0.2c1.5,0.4,2.5,1.1,2.5,2.7c0,1.8-1.6,2.7-3.3,2.7c-2.1,0-3.2-0.8-3.2-1.5c0-0.4,0.3-0.6,0.6-0.6
		c0.6,0,0.8,0.6,1,0.9c0.4,0.5,0.8,0.7,1.5,0.7C193.7,73.5,194.6,73,194.6,71.9"/>
	<path fill="#193254" d="M200.1,60c0.6,0,1.1,0.5,1.1,1.1s-0.5,1.1-1.1,1.1c-0.6,0-1.1-0.5-1.1-1.1S199.5,60,200.1,60 M200.9,72.4
		c0,0.8,0.2,1,1,1h0.4v0.4h-4.5v-0.4h0.4c0.8,0,1-0.2,1-1v-5.8c0-0.8-0.2-1-1-1h-0.4v-0.4h3.1V72.4z"/>
	<path fill="#193254" d="M205.3,66.6c0-0.8-0.2-1-1-1h-0.4v-0.4h3.1v1.8c0.4-1.3,1.6-2.2,3-2.2c0.8,0,1.5,0.2,2,0.7
		c0.6,0.5,1,1.2,1,2.7v4.1c0,0.8,0.2,1,1,1h0.4v0.4h-4.5v-0.4h0.4c0.8,0,1-0.2,1-1v-4.3c0-0.9-0.2-1.5-0.6-1.8
		c-0.3-0.3-0.9-0.6-1.5-0.6c-1.2,0-2.2,0.9-2.2,2.1v4.6c0,0.8,0.2,1,1,1h0.4v0.4h-4.5v-0.4h0.4c0.8,0,1-0.2,1-1V66.6z"/>
	<path fill="#193254" d="M221.1,73.4c0.8,0,1.8-0.4,2.6-1.3l0.2,0.2c-0.9,1.3-2.1,1.7-3.3,1.7c-2.8,0-4.5-1.8-4.5-4.6
		c0-2.6,2.1-4.5,4.7-4.5c1.1,0,3,0.5,3,1.5c0,0.3-0.2,0.6-0.6,0.6c-1.1,0-0.6-1.6-2.5-1.6c-2.1,0-2.8,2.2-2.8,3.9
		C217.9,71.3,218.9,73.4,221.1,73.4"/>
	<path fill="#193254" d="M227.5,67.8h4.5c-0.1-1.5-0.8-2.6-2-2.6C228.5,65.2,227.8,66.5,227.5,67.8 M227.5,68.2c0,0.4-0.1,0.7-0.1,1
		c0,2.1,1,4.1,3.3,4.1c0.8,0,2-0.4,2.7-1.3l0.2,0.1c-1,1.4-2.2,1.8-3.4,1.8c-2.8,0-4.5-1.8-4.5-4.6c0-2.6,1.9-4.5,4.4-4.5
		c2.1,0,3.6,1.6,3.6,3.4H227.5z"/>
	<path fill="#193254" d="M241.7,62.3c-0.7,0.1-1.6,0-2.3-0.1V62c1.1-0.2,2.4-0.6,3.6-1.3h0.3v11c0,1.2,0.2,1.6,1.4,1.6h0.6v0.4h-5.8
		v-0.4h0.6c1.2,0,1.6-0.3,1.6-1.6V62.3z"/>
	<path fill="#193254" d="M254.7,65c0-2.1-1.1-3.9-2.7-3.9c-1.8,0-2.8,1.7-2.8,4c0,2.1,1,3.6,2.6,3.6C253.6,68.7,254.7,67,254.7,65
		 M248.6,74.1c3.8-1.4,5.4-3.6,5.9-6.7c-0.4,1-1.5,2.1-3.3,2.1c-1.7,0-3.9-1.1-3.9-4.3c0-2.5,2-4.5,4.6-4.5c3,0,4.6,2.1,4.6,5.2
		c0,4.5-3.7,7.6-7.8,8.5L248.6,74.1z"/>
	<path fill="#193254" d="M266.6,62.6H261l-0.7,3.9c0.7-0.6,1.8-1,3-1c2.4,0,4,1.5,4,3.8c0,2.7-2,4.6-4.7,4.6c-1.9,0-3.9-1.2-3.9-2.3
		c0-0.5,0.3-0.8,0.8-0.8c0.7,0,0.9,0.7,1.2,1.4c0.3,0.6,0.8,1.3,2,1.3c1.6,0,2.8-1.4,2.8-3.6c0-1.8-1-3.1-2.8-3.1
		c-1,0-2.3,0.4-3.1,1.4l-0.1,0l1.3-7h4.4c1,0,1.5-0.2,1.7-0.9h0.2L266.6,62.6z"/>
	<path fill="#193254" d="M274.8,61.1c-1.5,0-3.1,1.6-3.1,6.2c0,4.6,1.6,6.2,3.1,6.2c1.5,0,3.1-1.5,3.1-6.2
		C278,62.8,276.3,61.1,274.8,61.1 M274.8,73.9c-3,0-5-2.4-5-6.6c0-4.2,2.2-6.6,5-6.6c3.2,0,5,2.5,5,6.7
		C279.8,71.6,277.6,73.9,274.8,73.9"/>
	<path fill="#193254" d="M57,37c0-2.9-2.2-4.5-4.9-5.2l-2.5-0.7c-5-1.3-6.3-4-6.3-7.3c0-4.4,3.8-7,8.6-7c5.5,0,8,2.5,8,4
		c0,1-0.8,1.6-1.7,1.6c-1.5,0-2-1.3-2.7-2.3c-1-1.6-2-2.1-3.9-2.1c-2.4,0-4.8,1.4-4.8,4c0,2.6,1.6,4,4.9,4.9l2.1,0.6
		c4.3,1.2,7.1,3.1,7.1,7.6c0,5-4.6,7.6-9.3,7.6c-5.9,0-9.1-2.4-9.1-4.2c0-1.1,1-1.7,1.8-1.7c1.7,0,2.2,1.6,3,2.7
		c1.1,1.5,2.3,2,4.2,2C54.6,41.6,57,40.1,57,37"/>
	<path fill="#193254" d="M90.1,38.3c0,2.2,0.6,2.8,2.9,2.8h1.3v1.1H81.4V41h1.3c2.3,0,2.9-0.6,2.9-2.8V26.2c0-2.5-0.7-4.2-1.7-5.2
		c-1-1-2.5-1.7-4.4-1.7c-3.3,0-6.2,2.7-6.4,6v13c0,2.2,0.6,2.8,2.9,2.8h1.3v1.1H64.4V41h1.3c2.3,0,2.9-0.6,2.9-2.8V5
		c0-2.2-0.6-2.8-2.9-2.8h-1.3V1.1h8.7v22.1c1-3.7,4.5-6.4,8.5-6.4c2.3,0,4.3,0.7,5.8,2c1.7,1.5,2.8,3.6,2.8,7.8V38.3z"/>
	<path fill="#193254" d="M100.4,5c0-2.2-0.6-2.8-2.9-2.8h-1.3V1.1h8.7v37.1c0,2.2,0.6,2.8,2.9,2.8h1.3v1.1H96.3V41h1.3
		c2.3,0,2.9-0.6,2.9-2.8V5z"/>
	<path fill="#193254" d="M117.4,25.2h12.9c-0.2-4.4-2.2-7.4-5.6-7.4C120.1,17.9,118.1,21.6,117.4,25.2 M117.2,26.5
		c-0.1,1-0.2,2-0.2,2.8c0,6.1,2.8,11.8,9.3,11.8c2.4,0,5.6-1,7.8-3.6l0.5,0.4c-2.8,3.9-6.4,5-9.8,5c-7.9,0-12.9-5.1-12.9-13.2
		c0-7.5,5.4-12.8,12.7-12.8c5.9,0,10.3,4.5,10.3,9.7H117.2z"/>
	<path fill="#193254" d="M155.8,23.7c1.1-2.6,0.6-4.7-1.6-4.7h-0.9V18h9.7V19c-2.9,0-4.2,1.8-5.1,3.9l-10,23.7
		c-2.4,5.7-4.8,6.1-6.9,6.1c-2.2,0-4.7-1.1-4.7-2.8c0-1,0.8-1.9,1.9-1.9c2.2,0,2,3,3.8,3c1.4,0,2.6-0.5,4.5-5l1.3-3.4l-8.7-20.9
		c-0.8-1.9-1.5-2.6-4.3-2.6V18h11.9V19c-2.5,0-3.3,0.4-2.8,1.7l6.2,16.7L155.8,23.7z"/>
	<path fill="#193254" d="M223.3,9.1c2.2-6.2,1.7-6.9-2-6.9h-0.9V1.1h12v1.1H232c-2.9,0-4.4,0.7-6.3,6.2l-12.4,34.9h-0.7l-11-30.1
		l-10.9,30.1H190L176,5.2c-0.7-1.9-2-3-4-3h-1.2V1.1h14.5v1.1h-1.3c-2,0-3.3,0.6-2.6,2.5L192,34.7l8.6-24.1l-2-5.5c-0.7-1.9-2-3-4-3
		h-1.2V1.1h14.5v1.1h-1.3c-2,0-3.3,0.6-2.6,2.5l10.5,29.5L223.3,9.1z"/>
	<path fill="#193254" d="M237.5,2.9c1.8,0,3.3,1.5,3.3,3.3c0,1.8-1.5,3.2-3.3,3.2c-1.8,0-3.2-1.4-3.2-3.2
		C234.2,4.4,235.6,2.9,237.5,2.9 M239.7,38.3c0,2.2,0.6,2.8,2.9,2.8h1.3v1.1H231V41h1.3c2.3,0,2.9-0.6,2.9-2.8V21.8
		c0-2.2-0.6-2.8-2.9-2.8H231V18h8.7V38.3z"/>
	<path fill="#193254" d="M250.3,5c0-2.2-0.6-2.8-2.9-2.8h-1.3V1.1h8.7v37.1c0,2.2,0.6,2.8,2.9,2.8h1.3v1.1h-12.8V41h1.3
		c2.3,0,2.9-0.6,2.9-2.8V5z"/>
	<path fill="#193254" d="M267.5,29.8c0,6.4,3.2,11.4,9.4,11.4c2.3,0,3.8-0.5,5.5-1.7v-19c-1.8-1.5-3.9-2-5.7-2
		C270.8,18.5,267.5,23.3,267.5,29.8 M282.3,5c0-2.2-0.6-2.8-2.9-2.8h-1.3V1.1h8.7v37.1c0,2.2,0.7,2.8,2.9,2.8h1.3v1.1h-8.8v-2.2
		c-2.2,2.1-4.6,2.9-7.4,2.9c-7.6,0-12.6-5.7-12.6-13c0-7.2,5-13,12.6-13c2.5,0,5.1,0.8,7.4,3.2V5z"/>
	<path fill="#193254" d="M300.5,25.2h12.9c-0.2-4.4-2.2-7.4-5.6-7.4C303.3,17.9,301.3,21.6,300.5,25.2 M300.3,26.5
		c-0.1,1-0.2,2-0.2,2.8c0,6.1,2.8,11.8,9.3,11.8c2.4,0,5.6-1,7.8-3.6l0.5,0.4c-2.8,3.9-6.4,5-9.8,5c-7.9,0-12.9-5.1-12.9-13.2
		c0-7.5,5.4-12.8,12.7-12.8c5.9,0,10.3,4.5,10.3,9.7H300.3z"/>
	<path fill="#193254" d="M13.3,24l11.9,0L19.6,8.7L13.3,24z M20.9,0h0.6l14,38.1c0.8,1.9,2,3,4,3h1.2v1.1l-13.8,0v-1H28
		c2,0,3.4-0.6,2.6-2.5l-4.1-11.1l-14.6,0l-2.8,6.7c-2.5,6.1-1.7,6.9,2,6.9H12v1l-12,0V41h0.5c2.9,0,4.1-0.8,6.3-6.2L20.9,0z"/>
</g>
</svg>
