<?xml version="1.0" encoding="utf-8"?>
<!-- Generator: Adobe Illustrator 19.0.1, SVG Export Plug-In . SVG Version: 6.00 Build 0)  -->
<svg version="1.1" id="Слой_2" xmlns="http://www.w3.org/2000/svg" xmlns:xlink="http://www.w3.org/1999/xlink" x="0px" y="0px"
	 viewBox="-119.8 165.3 184 173.1" style="enable-background:new -119.8 165.3 184 173.1;" xml:space="preserve">
<style type="text/css">
	.st0{fill:none;stroke:#5D4063;stroke-miterlimit:10;}
	.st1{fill:none;stroke:#5D4063;stroke-miterlimit:10;stroke-dasharray:5.1926,5.1926;}
	.st2{fill:none;stroke:#5D4063;stroke-miterlimit:10;stroke-dasharray:4.9218,4.9218;}
	.st3{fill:none;stroke:#5D4063;stroke-miterlimit:10;stroke-dasharray:4.7451,4.7451;}
	.st4{fill:none;stroke:#5D4063;stroke-miterlimit:10;stroke-dasharray:4.2084,4.2084;}
	.st5{fill:none;stroke:#5D4063;stroke-miterlimit:10;stroke-dasharray:4.918,4.918;}
	.st6{fill:none;stroke:#5D4063;stroke-miterlimit:10;stroke-dasharray:5.0286,5.0286;}
	.st7{fill:none;stroke:#5D4063;stroke-miterlimit:10;stroke-dasharray:5.431,5.431;}
	.st8{fill:none;stroke:#5D4063;stroke-miterlimit:10;stroke-dasharray:5.4892,5.4892;}
	.st9{fill:none;stroke:#5D4063;stroke-miterlimit:10;stroke-dasharray:4.7676,4.7676;}
	.st10{fill:none;stroke:#5D4063;stroke-miterlimit:10;stroke-dasharray:5.0831,5.0831;}
	.st11{fill:none;stroke:#5D4063;stroke-miterlimit:10;stroke-dasharray:5.083,5.083;}
	.st12{fill:none;stroke:#5D4063;stroke-miterlimit:10;stroke-dasharray:4.8653,4.8653;}
</style>
<g>
	<g>
		<g>
			<polyline class="st0" points="-19.5,165.9 -22,165.9 -22,168.4 			"/>
			<path class="st1" d="M-22.1,173.6l0,1.2c-0.1,8.1,0.6,16.3,2.3,24.2c9.6,44.3,42,57.6,54.5,61.1"/>
			<path class="st0" d="M37.2,260.7c1.6,0.4,2.4,0.5,2.4,0.5s-0.3,0.8-0.8,2.4"/>
			<path class="st2" d="M37.2,268.2c-5.9,16.7-20.3,57.5-20.6,60.1c1.1,5.8,6.9,9.3,8.4,9.5c1.5,0.2,4.6-4.1,7.3-4.1
				s6.9,3.8,8.4,4.1c1.5,0.3,3.3-4.1,7.1-4.1s3,4.8,7.9,4s8-7.8,8-7.8v-159"/>
			<polyline class="st0" points="63.7,168.4 63.7,165.9 61.2,165.9 			"/>
			<line class="st3" x1="56.4" y1="165.9" x2="-17.1" y2="165.9"/>
		</g>
	</g>
	<g>
		<g>
			<line class="st0" x1="39.7" y1="261.2" x2="42" y2="260.2"/>
			<line class="st4" x1="45.8" y1="258.6" x2="59.4" y2="252.9"/>
			<line class="st0" x1="61.4" y1="252.1" x2="63.7" y2="251.1"/>
		</g>
	</g>
	<g>
		<g>
			<path class="st0" d="M20.8,165.9c0,0-0.1,0.9-0.2,2.5"/>
			<path class="st5" d="M20.5,173.3c0.1,15.7,4.2,52.6,38.8,72.3"/>
			<path class="st0" d="M61.4,246.8c0.7,0.4,1.5,0.8,2.2,1.1"/>
		</g>
	</g>
	<g>
		<g>
			<path class="st0" d="M35.3,165.9c0,0-0.1,0.9-0.1,2.5"/>
			<path class="st6" d="M35.3,173.4c0.5,13.9,4.1,43.8,24.5,61.4"/>
			<path class="st0" d="M61.7,236.4c0.7,0.5,1.3,1,2,1.5"/>
		</g>
	</g>
	<g>
		<g>
			<path class="st0" d="M51.7,165.9c0,0-0.1,0.9-0.2,2.5"/>
			<path class="st7" d="M51.2,173.8c-0.3,11.6,0.6,33.5,9.7,50.1"/>
			<path class="st0" d="M62.3,226.3c0.4,0.7,0.9,1.4,1.4,2.1"/>
		</g>
	</g>
	<g>
		<g>
			<line class="st0" x1="53.7" y1="337.6" x2="54.2" y2="335.2"/>
			<line class="st8" x1="55.2" y1="329.8" x2="62.7" y2="289.3"/>
			<line class="st0" x1="63.2" y1="286.6" x2="63.7" y2="284.2"/>
		</g>
	</g>
	<g>
		<g>
			<line class="st0" x1="42.9" y1="336.3" x2="43.4" y2="333.8"/>
			<line class="st9" x1="44.4" y1="329.2" x2="60" y2="256.9"/>
			<path class="st0" d="M60.6,254.6l0.5-2.4c-0.8-0.2-1.6-0.4-2.4-0.7"/>
			<path class="st10" d="M53.9,249.9C9.6,233.4,4.8,186.5,4.5,171"/>
			<path class="st0" d="M4.4,168.4c0-1.6,0.1-2.5,0.1-2.5"/>
		</g>
	</g>
	<g>
		<g>
			<line class="st0" x1="27.6" y1="336.3" x2="28.3" y2="333.8"/>
			<line class="st11" x1="29.5" y1="328.9" x2="46.8" y2="262.5"/>
			<path class="st0" d="M47.5,260.1l0.6-2.4c-0.8-0.3-1.6-0.6-2.3-0.9"/>
			<path class="st12" d="M41.3,254.9c-49.1-21.6-51.1-68.8-50.4-84.1"/>
			<path class="st0" d="M-9,168.4c0.1-1.6,0.3-2.5,0.3-2.5"/>
		</g>
	</g>
</g>
<g>
	<g>
		<g>
			<polyline class="st0" points="-36.2,165.9 -33.7,165.9 -33.6,168.4 			"/>
			<path class="st1" d="M-33.6,173.6l0,1.2c0.1,8.1-0.6,16.3-2.3,24.2c-9.6,44.3-42,57.6-54.5,61.1"/>
			<path class="st0" d="M-92.9,260.7c-1.6,0.4-2.4,0.5-2.4,0.5s0.3,0.8,0.8,2.4"/>
			<path class="st2" d="M-92.8,268.2c5.9,16.7,20.3,57.5,20.6,60.1c-1.1,5.8-6.9,9.3-8.4,9.5c-1.5,0.2-4.6-4.1-7.3-4.1
				s-6.9,3.8-8.4,4.1c-1.5,0.3-3.3-4.1-7.1-4.1s-3,4.8-7.9,4c-4.9-0.8-8-7.8-8-7.8v-159"/>
			<polyline class="st0" points="-119.3,168.4 -119.3,165.9 -116.8,165.9 			"/>
			<line class="st3" x1="-112.1" y1="165.9" x2="-38.5" y2="165.9"/>
		</g>
	</g>
	<g>
		<g>
			<line class="st0" x1="-95.3" y1="261.2" x2="-97.6" y2="260.2"/>
			<line class="st4" x1="-101.5" y1="258.6" x2="-115.1" y2="252.9"/>
			<line class="st0" x1="-117" y1="252.1" x2="-119.3" y2="251.1"/>
		</g>
	</g>
	<g>
		<g>
			<path class="st0" d="M-76.4,165.9c0,0,0.1,0.9,0.2,2.5"/>
			<path class="st5" d="M-76.1,173.3c-0.1,15.7-4.2,52.6-38.8,72.3"/>
			<path class="st0" d="M-117.1,246.8c-0.7,0.4-1.5,0.8-2.2,1.1"/>
		</g>
	</g>
	<g>
		<g>
			<path class="st0" d="M-90.9,165.9c0,0,0.1,0.9,0.1,2.5"/>
			<path class="st6" d="M-90.9,173.4c-0.5,13.9-4.1,43.8-24.5,61.4"/>
			<path class="st0" d="M-117.3,236.4c-0.7,0.5-1.3,1-2,1.5"/>
		</g>
	</g>
	<g>
		<g>
			<path class="st0" d="M-107.3,165.9c0,0,0.1,0.9,0.2,2.5"/>
			<path class="st7" d="M-106.9,173.8c0.3,11.6-0.6,33.5-9.7,50.1"/>
			<path class="st0" d="M-118,226.3c-0.4,0.7-0.9,1.4-1.4,2.1"/>
		</g>
	</g>
	<g>
		<g>
			<line class="st0" x1="-109.3" y1="337.6" x2="-109.8" y2="335.2"/>
			<line class="st8" x1="-110.8" y1="329.8" x2="-118.4" y2="289.3"/>
			<line class="st0" x1="-118.9" y1="286.6" x2="-119.3" y2="284.2"/>
		</g>
	</g>
	<g>
		<g>
			<line class="st0" x1="-98.5" y1="336.3" x2="-99" y2="333.8"/>
			<line class="st9" x1="-100" y1="329.2" x2="-115.7" y2="256.9"/>
			<path class="st0" d="M-116.2,254.6l-0.5-2.4c0.8-0.2,1.6-0.4,2.4-0.7"/>
			<path class="st10" d="M-109.5,249.9c44.3-16.5,49.1-63.4,49.4-78.9"/>
			<path class="st0" d="M-60.1,168.4c0-1.6-0.1-2.5-0.1-2.5"/>
		</g>
	</g>
	<g>
		<g>
			<line class="st0" x1="-83.3" y1="336.3" x2="-83.9" y2="333.8"/>
			<line class="st11" x1="-85.2" y1="328.9" x2="-102.5" y2="262.5"/>
			<path class="st0" d="M-103.1,260.1l-0.6-2.4c0.8-0.3,1.6-0.6,2.3-0.9"/>
			<path class="st12" d="M-96.9,254.9c49.1-21.6,51.1-68.8,50.4-84.1"/>
			<path class="st0" d="M-46.6,168.4c-0.1-1.6-0.3-2.5-0.3-2.5"/>
		</g>
	</g>
</g>
</svg>
